<svg width="50" height="50" viewBox="0 0 50 50" fill="none" xmlns="http://www.w3.org/2000/svg">
<g clip-path="url(#clip0_316_25)">
<path d="M20.5663 3.95508C20.1269 4.11133 19.6972 4.50195 19.4921 4.92188C19.4042 5.10742 19.3163 5.84961 19.248 6.88477C19.0527 9.91211 18.4667 11.3965 17.0605 12.4609C16.289 13.0371 16.2695 13.0469 8.39838 16.3574C4.60931 17.9492 1.3183 19.3457 1.08392 19.4629C-0.0684208 20.0293 -0.332093 21.4844 0.546814 22.4609C0.966735 22.9297 -0.253968 22.5293 14.6093 27.0996C22.6074 29.5508 26.6796 30.7617 26.9628 30.7617C27.2851 30.7617 27.7148 30.6055 28.662 30.166C32.0214 28.6035 38.1347 25.8203 39.7558 25.1172C40.7617 24.6875 41.9433 24.1504 42.3925 23.9258C44.8339 22.7051 46.4648 21.1035 47.207 19.2285C47.7831 17.7539 47.9687 16.3965 47.9882 13.5254C47.998 11.4648 47.9882 11.3574 47.7734 10.9668C47.3925 10.2344 47.1777 10.1562 42.7734 9.07227C40.5468 8.52539 36.1523 7.45117 33.0078 6.66992C22.9492 4.18945 21.3671 3.80859 21.1523 3.80859C21.0449 3.81836 20.7812 3.87695 20.5663 3.95508ZM28.1445 9.43359C30.8984 10.1172 35.5468 11.2598 38.4765 11.9824C41.4062 12.6953 43.8867 13.3105 43.9843 13.3398C44.1601 13.3984 44.1601 13.4863 44.1113 14.8828C44.0234 17.0117 43.7206 18.0469 42.9003 18.9551C42.1874 19.7461 41.2206 20.293 38.1542 21.6211C35.4296 22.8125 32.2167 24.2676 28.1738 26.1621C27.4804 26.4844 26.8359 26.7578 26.7578 26.7578C26.582 26.7578 7.79291 20.9961 7.69525 20.9082C7.65619 20.8789 9.61908 20.0195 12.041 19.0039C18.291 16.3867 18.9257 16.0547 20.3124 14.6582C21.8456 13.1152 22.5585 11.5137 22.998 8.56445C23.0273 8.36914 23.0761 8.20312 23.0956 8.20312C23.1249 8.20312 25.3906 8.75977 28.1445 9.43359Z" fill="#1098F7"/>
<path d="M47.4609 25.1367C47.2754 25.2051 42.5586 27.334 36.9824 29.873C28.7695 33.6133 26.7871 34.4726 26.582 34.4238C26.4355 34.3848 20.8984 32.6953 14.2773 30.6543C7.65622 28.623 2.08981 26.9531 1.90427 26.9531C1.18161 26.9531 0.498017 27.4023 0.185517 28.0762C-0.292999 29.1211 0.234345 30.2832 1.38669 30.7031C1.62106 30.7812 7.40231 32.5683 14.248 34.6777C24.5215 37.832 26.7578 38.4863 27.0996 38.457C27.5195 38.4082 48.5351 28.9258 49.2285 28.4668C49.873 28.0469 50.1855 26.9726 49.8925 26.2012C49.5507 25.293 48.3984 24.7851 47.4609 25.1367Z" fill="#1098F7"/>
<path d="M46.9727 33.0371C46.5723 33.2129 41.8652 35.3516 36.5234 37.7832L26.7969 42.1973L14.5605 38.4375C7.83203 36.3672 2.16797 34.668 1.98242 34.668C0.976563 34.668 0.0976562 35.5566 0.0976562 36.5723C0.0976562 37.1484 0.283203 37.5684 0.712891 37.9687C1.02539 38.2715 1.95313 38.5742 13.877 42.2461C24.4141 45.498 26.7773 46.1914 27.0996 46.1523C27.5781 46.0937 48.8379 36.4453 49.3066 36.0742C50.4004 35.1953 50.127 33.418 48.8086 32.8613C48.2617 32.6367 47.7832 32.6855 46.9727 33.0371Z" fill="#1098F7"/>
</g>
<defs>
<clipPath id="clip0_316_25">
<rect width="50" height="50" fill="white"/>
</clipPath>
</defs>
</svg>
