<svg width="287" height="50" viewBox="0 0 287 50" fill="none" xmlns="http://www.w3.org/2000/svg">
<g clip-path="url(#clip0_316_18)">
<path d="M20.5663 3.95508C20.1269 4.11133 19.6972 4.50195 19.4921 4.92188C19.4042 5.10742 19.3163 5.84961 19.248 6.88477C19.0527 9.91211 18.4667 11.3965 17.0605 12.4609C16.289 13.0371 16.2695 13.0469 8.39838 16.3574C4.60931 17.9492 1.3183 19.3457 1.08392 19.4629C-0.0684208 20.0293 -0.332093 21.4844 0.546814 22.4609C0.966735 22.9297 -0.253968 22.5293 14.6093 27.0996C22.6074 29.5508 26.6796 30.7617 26.9628 30.7617C27.2851 30.7617 27.7148 30.6055 28.662 30.166C32.0214 28.6035 38.1347 25.8203 39.7558 25.1172C40.7617 24.6875 41.9433 24.1504 42.3925 23.9258C44.8339 22.7051 46.4648 21.1035 47.207 19.2285C47.7831 17.7539 47.9687 16.3965 47.9882 13.5254C47.998 11.4648 47.9882 11.3574 47.7734 10.9668C47.3925 10.2344 47.1777 10.1562 42.7734 9.07227C40.5468 8.52539 36.1523 7.45117 33.0078 6.66992C22.9492 4.18945 21.3671 3.80859 21.1523 3.80859C21.0449 3.81836 20.7812 3.87695 20.5663 3.95508ZM28.1445 9.43359C30.8984 10.1172 35.5468 11.2598 38.4765 11.9824C41.4062 12.6953 43.8867 13.3105 43.9843 13.3398C44.1601 13.3984 44.1601 13.4863 44.1113 14.8828C44.0234 17.0117 43.7206 18.0469 42.9003 18.9551C42.1874 19.7461 41.2206 20.293 38.1542 21.6211C35.4296 22.8125 32.2167 24.2676 28.1738 26.1621C27.4804 26.4844 26.8359 26.7578 26.7578 26.7578C26.582 26.7578 7.79291 20.9961 7.69525 20.9082C7.65619 20.8789 9.61908 20.0195 12.041 19.0039C18.291 16.3867 18.9257 16.0547 20.3124 14.6582C21.8456 13.1152 22.5585 11.5137 22.998 8.56445C23.0273 8.36914 23.0761 8.20312 23.0956 8.20312C23.1249 8.20312 25.3906 8.75977 28.1445 9.43359Z" fill="#1098F7"/>
<path d="M47.4609 25.1367C47.2754 25.2051 42.5586 27.334 36.9824 29.873C28.7695 33.6133 26.7871 34.4726 26.582 34.4238C26.4355 34.3848 20.8984 32.6953 14.2773 30.6543C7.65622 28.623 2.08981 26.9531 1.90427 26.9531C1.18161 26.9531 0.498017 27.4023 0.185517 28.0762C-0.292999 29.1211 0.234345 30.2832 1.38669 30.7031C1.62106 30.7812 7.40231 32.5683 14.248 34.6777C24.5215 37.832 26.7578 38.4863 27.0996 38.457C27.5195 38.4082 48.5351 28.9258 49.2285 28.4668C49.873 28.0469 50.1855 26.9726 49.8925 26.2012C49.5507 25.293 48.3984 24.7851 47.4609 25.1367Z" fill="#1098F7"/>
<path d="M46.9727 33.0371C46.5723 33.2129 41.8652 35.3516 36.5234 37.7832L26.7969 42.1973L14.5605 38.4375C7.83203 36.3672 2.16797 34.668 1.98242 34.668C0.976563 34.668 0.0976562 35.5566 0.0976562 36.5723C0.0976562 37.1484 0.283203 37.5684 0.712891 37.9687C1.02539 38.2715 1.95313 38.5742 13.877 42.2461C24.4141 45.498 26.7773 46.1914 27.0996 46.1523C27.5781 46.0937 48.8379 36.4453 49.3066 36.0742C50.4004 35.1953 50.127 33.418 48.8086 32.8613C48.2617 32.6367 47.7832 32.6855 46.9727 33.0371Z" fill="#1098F7"/>
</g>
<path d="M72.464 39.576C70.56 39.576 68.904 39.112 67.496 38.184C66.088 37.24 64.992 35.984 64.208 34.416C63.44 32.832 63.056 31.08 63.056 29.16C63.056 27.24 63.44 25.496 64.208 23.928C64.992 22.344 66.088 21.08 67.496 20.136C68.904 19.192 70.56 18.72 72.464 18.72C73.728 18.72 74.848 18.92 75.824 19.32C76.8 19.704 77.592 20.168 78.2 20.712C78.808 21.24 79.176 21.728 79.304 22.176V5.976H86.6V39H79.376V35.808C79.072 36.4 78.576 36.992 77.888 37.584C77.2 38.16 76.392 38.632 75.464 39C74.536 39.384 73.536 39.576 72.464 39.576ZM74.696 33.84C75.576 33.84 76.36 33.64 77.048 33.24C77.752 32.84 78.304 32.288 78.704 31.584C79.104 30.864 79.304 30.056 79.304 29.16C79.304 28.264 79.104 27.464 78.704 26.76C78.304 26.04 77.752 25.48 77.048 25.08C76.36 24.664 75.576 24.456 74.696 24.456C73.848 24.456 73.08 24.664 72.392 25.08C71.72 25.48 71.184 26.04 70.784 26.76C70.4 27.464 70.208 28.264 70.208 29.16C70.208 30.056 70.4 30.864 70.784 31.584C71.184 32.288 71.72 32.84 72.392 33.24C73.08 33.64 73.848 33.84 74.696 33.84ZM100.861 39.576C98.7005 39.576 96.7805 39.136 95.1005 38.256C93.4365 37.36 92.1245 36.136 91.1645 34.584C90.2205 33.016 89.7485 31.224 89.7485 29.208C89.7485 27.192 90.2205 25.4 91.1645 23.832C92.1245 22.248 93.4365 21 95.1005 20.088C96.7805 19.176 98.7005 18.72 100.861 18.72C103.021 18.72 104.925 19.176 106.573 20.088C108.221 21 109.509 22.248 110.437 23.832C111.365 25.4 111.829 27.192 111.829 29.208C111.829 31.224 111.365 33.016 110.437 34.584C109.509 36.136 108.221 37.36 106.573 38.256C104.925 39.136 103.021 39.576 100.861 39.576ZM100.861 33.576C101.693 33.576 102.413 33.392 103.021 33.024C103.629 32.656 104.101 32.136 104.437 31.464C104.773 30.792 104.941 30.032 104.941 29.184C104.941 28.32 104.773 27.552 104.437 26.88C104.101 26.208 103.629 25.68 103.021 25.296C102.413 24.912 101.693 24.72 100.861 24.72C100.029 24.72 99.3005 24.912 98.6765 25.296C98.0685 25.68 97.5885 26.208 97.2365 26.88C96.9005 27.552 96.7325 28.32 96.7325 29.184C96.7325 30.032 96.9005 30.792 97.2365 31.464C97.5885 32.136 98.0685 32.656 98.6765 33.024C99.3005 33.392 100.029 33.576 100.861 33.576ZM126.305 33.84C127.217 33.84 127.969 33.688 128.561 33.384C129.153 33.064 129.553 32.808 129.761 32.616L133.097 37.56C132.841 37.768 132.401 38.04 131.777 38.376C131.153 38.696 130.369 38.976 129.425 39.216C128.497 39.456 127.433 39.576 126.233 39.576C123.977 39.576 121.993 39.152 120.281 38.304C118.569 37.44 117.233 36.224 116.273 34.656C115.329 33.088 114.857 31.248 114.857 29.136C114.857 27.008 115.329 25.168 116.273 23.616C117.233 22.064 118.569 20.864 120.281 20.016C121.993 19.152 123.977 18.72 126.233 18.72C127.417 18.72 128.473 18.848 129.401 19.104C130.345 19.344 131.137 19.624 131.777 19.944C132.417 20.248 132.865 20.512 133.121 20.736L129.713 25.728C129.601 25.616 129.393 25.456 129.089 25.248C128.801 25.04 128.425 24.856 127.961 24.696C127.497 24.536 126.945 24.456 126.305 24.456C125.521 24.456 124.785 24.656 124.097 25.056C123.425 25.456 122.881 26.008 122.465 26.712C122.049 27.416 121.841 28.224 121.841 29.136C121.841 30.048 122.049 30.864 122.465 31.584C122.881 32.288 123.425 32.84 124.097 33.24C124.785 33.64 125.521 33.84 126.305 33.84ZM142.975 28.416C142.975 29.984 143.271 31.24 143.863 32.184C144.455 33.112 145.447 33.576 146.839 33.576C148.263 33.576 149.263 33.112 149.839 32.184C150.431 31.24 150.727 29.984 150.727 28.416V19.296H157.927V29.184C157.927 31.296 157.487 33.136 156.607 34.704C155.743 36.256 154.487 37.456 152.839 38.304C151.191 39.152 149.191 39.576 146.839 39.576C144.503 39.576 142.511 39.152 140.863 38.304C139.215 37.456 137.959 36.256 137.095 34.704C136.231 33.136 135.799 31.296 135.799 29.184V19.296H142.975V28.416ZM189.456 18.72C190.944 18.72 192.256 19.032 193.392 19.656C194.528 20.264 195.416 21.208 196.056 22.488C196.712 23.768 197.04 25.416 197.04 27.432V39H189.864V28.536C189.864 27.16 189.656 26.048 189.24 25.2C188.824 24.352 188 23.928 186.768 23.928C186.032 23.928 185.384 24.12 184.824 24.504C184.264 24.888 183.832 25.424 183.528 26.112C183.224 26.784 183.072 27.592 183.072 28.536V39H176.376V28.536C176.376 27.16 176.144 26.048 175.68 25.2C175.232 24.352 174.432 23.928 173.28 23.928C172.544 23.928 171.896 24.12 171.336 24.504C170.776 24.872 170.344 25.4 170.04 26.088C169.752 26.76 169.608 27.576 169.608 28.536V39H162.36V19.296H169.608V22.104C169.8 21.608 170.216 21.104 170.856 20.592C171.512 20.064 172.32 19.624 173.28 19.272C174.24 18.904 175.256 18.72 176.328 18.72C177.496 18.72 178.472 18.896 179.256 19.248C180.04 19.584 180.68 20.04 181.176 20.616C181.688 21.192 182.096 21.816 182.4 22.488C182.624 21.912 183.064 21.336 183.72 20.76C184.392 20.168 185.224 19.68 186.216 19.296C187.224 18.912 188.304 18.72 189.456 18.72ZM201.506 39V19.296H208.802V39H201.506ZM205.25 15.24C204.098 15.24 203.122 14.84 202.322 14.04C201.522 13.224 201.122 12.256 201.122 11.136C201.122 10.016 201.522 9.048 202.322 8.232C203.138 7.4 204.114 6.984 205.25 6.984C206.002 6.984 206.69 7.176 207.314 7.56C207.938 7.928 208.442 8.424 208.826 9.048C209.21 9.672 209.402 10.368 209.402 11.136C209.402 12.256 208.994 13.224 208.178 14.04C207.362 14.84 206.386 15.24 205.25 15.24ZM227.389 18.72C228.765 18.72 230.109 19 231.421 19.56C232.733 20.12 233.813 21.008 234.661 22.224C235.509 23.424 235.932 25.008 235.932 26.976V39H228.613V28.176C228.613 26.768 228.277 25.712 227.605 25.008C226.933 24.288 226.053 23.928 224.965 23.928C224.245 23.928 223.565 24.12 222.925 24.504C222.301 24.872 221.789 25.4 221.389 26.088C221.005 26.76 220.813 27.536 220.813 28.416V39H213.517V19.296H220.813V22.2C221.005 21.672 221.405 21.144 222.013 20.616C222.637 20.072 223.413 19.624 224.341 19.272C225.285 18.904 226.301 18.72 227.389 18.72ZM248.62 39.576C246.716 39.576 245.06 39.112 243.652 38.184C242.244 37.24 241.148 35.984 240.364 34.416C239.596 32.832 239.212 31.08 239.212 29.16C239.212 27.24 239.596 25.496 240.364 23.928C241.148 22.344 242.244 21.08 243.652 20.136C245.06 19.192 246.716 18.72 248.62 18.72C249.884 18.72 251.004 18.92 251.98 19.32C252.956 19.704 253.748 20.168 254.356 20.712C254.964 21.24 255.332 21.728 255.46 22.176V5.976H262.756V39H255.532V35.808C255.228 36.4 254.732 36.992 254.044 37.584C253.356 38.16 252.548 38.632 251.62 39C250.692 39.384 249.692 39.576 248.62 39.576ZM250.852 33.84C251.732 33.84 252.516 33.64 253.204 33.24C253.908 32.84 254.46 32.288 254.86 31.584C255.26 30.864 255.46 30.056 255.46 29.16C255.46 28.264 255.26 27.464 254.86 26.76C254.46 26.04 253.908 25.48 253.204 25.08C252.516 24.664 251.732 24.456 250.852 24.456C250.004 24.456 249.236 24.664 248.548 25.08C247.876 25.48 247.34 26.04 246.94 26.76C246.556 27.464 246.364 28.264 246.364 29.16C246.364 30.056 246.556 30.864 246.94 31.584C247.34 32.288 247.876 32.84 248.548 33.24C249.236 33.64 250.004 33.84 250.852 33.84ZM271.881 39.576C270.697 39.576 269.673 39.152 268.809 38.304C267.961 37.44 267.537 36.416 267.537 35.232C267.537 34.016 267.961 32.984 268.809 32.136C269.673 31.272 270.697 30.84 271.881 30.84C273.097 30.84 274.129 31.272 274.977 32.136C275.825 32.984 276.249 34.016 276.249 35.232C276.249 36.416 275.825 37.44 274.977 38.304C274.129 39.152 273.097 39.576 271.881 39.576Z" fill="white"/>
<defs>
<clipPath id="clip0_316_18">
<rect width="50" height="50" fill="white"/>
</clipPath>
</defs>
</svg>
